<?xml version="1.0" standalone="no"?>
<!DOCTYPE svg PUBLIC "-//W3C//DTD SVG 20010904//EN"
 "http://www.w3.org/TR/2001/REC-SVG-20010904/DTD/svg10.dtd">
<svg version="1.0" xmlns="http://www.w3.org/2000/svg"
 width="500.000000pt" height="500.000000pt" viewBox="0 0 500.000000 500.000000"
 preserveAspectRatio="xMidYMid meet">
<metadata>
Created by potrace 1.14, written by Peter Selinger 2001-2017
</metadata>
<g transform="translate(0.000000,500.000000) scale(0.100000,-0.100000)"
fill="#000000" stroke="none">
<path d="M0 4548 l0 -303 90 90 90 90 93 -93 92 -92 123 123 122 122 -92 93
-93 92 90 90 90 90 -303 0 -302 0 0 -302z"/>
<path d="M4488 4758 l92 -93 -92 -92 -93 -93 123 -122 122 -123 93 93 92 92
88 -87 87 -88 0 303 0 302 -302 0 -303 0 93 -92z"/>
<path d="M1032 4199 c-221 -37 -410 -177 -512 -380 -63 -123 -60 -66 -60
-1327 l0 -1151 25 -78 c34 -107 87 -194 171 -277 113 -113 233 -173 390 -196
57 -8 484 -10 1509 -8 l1430 3 70 23 c129 44 204 89 296 182 69 69 94 103 127
170 76 156 72 74 72 1335 0 1262 4 1179 -72 1335 -78 160 -250 301 -433 356
-57 17 -144 18 -1510 20 -810 1 -1473 -2 -1503 -7z m2975 -373 c75 -34 134
-95 171 -174 l27 -57 0 -1100 0 -1100 -27 -57 c-37 -79 -96 -140 -171 -174
l-62 -29 -1445 0 -1445 0 -59 29 c-72 35 -126 88 -163 158 l-28 53 0 1115 0
1115 27 57 c43 91 131 165 225 187 22 5 654 8 1463 8 l1425 -2 62 -29z"/>
<path d="M1140 2495 l0 -1025 1363 2 1362 3 0 1020 0 1020 -1362 3 -1363 2 0
-1025z m680 170 l0 -175 -170 0 -170 0 0 175 0 175 170 0 170 0 0 -175z m1705
0 l0 -170 -680 0 -680 0 -3 173 -2 172 682 -2 683 -3 0 -170z m-685 -685 l0
-170 -680 0 -680 0 0 170 0 170 680 0 680 0 0 -170z m688 3 l-3 -168 -170 0
-170 0 -3 168 -2 167 175 0 175 0 -2 -167z"/>
<path d="M272 668 l-92 -93 -90 90 -90 90 0 -303 0 -302 302 0 303 0 -90 90
-90 90 93 93 92 92 -123 123 -122 122 -93 -92z"/>
<path d="M4515 630 l-120 -120 93 -93 92 -92 -87 -88 -88 -87 298 0 297 0 0
297 0 298 -83 -83 c-45 -45 -87 -82 -92 -82 -6 0 -48 38 -95 85 -47 47 -87 85
-90 85 -3 0 -59 -54 -125 -120z"/>
</g>
</svg>
